Coordinates
version=1
nRows=14
nColumns=24
inDegrees=yes

Units are S.I. units (second, meters, Newtons, ...)
Angles are in degrees.

endheader
time	pelvis_tilt	pelvis_list	pelvis_rotation	pelvis_tx	pelvis_ty	pelvis_tz	hip_flexion_r	hip_adduction_r	hip_rotation_r	knee_angle_r	ankle_angle_r	subtalar_angle_r	mtp_angle_r	hip_flexion_l	hip_adduction_l	hip_rotation_l	knee_angle_l	ankle_angle_l	subtalar_angle_l	mtp_angle_l	lumbar_extension	lumbar_bending	lumbar_rotation
      7.34000000	     37.69239432	      3.43558631	      5.76509160	      1.86680173	      0.67583261	     -0.27408396	    -33.60066344	      5.27077662	     -4.64026419	    -13.58441013	     19.76242272	      6.80788051	      0.00000000	    -21.83210463	     -5.06966025	     -7.85456779	    -67.16586781	      6.49681662	     -5.00106819	      0.00000000	    -63.26241858	      2.40895668	     -5.54053848
      7.34500000	     37.61331952	      3.49179746	      5.56207265	      1.87145218	      0.67619777	     -0.27409936	    -34.20509252	      5.13477961	     -4.61671740	    -13.12383924	     19.85096695	      6.99117265	      0.00000000	    -21.03224962	     -4.62014276	     -7.71270272	    -66.82835978	      7.27126458	     -4.60168663	      0.00000000	    -63.23842679	      2.24297422	     -5.40458240
      7.35000000	     37.54104365	      3.53774763	      5.35490300	      1.87607237	      0.67651667	     -0.27418168	    -34.80243302	      4.99515873	     -4.60386662	    -12.68326344	     19.94124230	      7.18906914	      0.00000000	    -20.25647299	     -4.17054607	     -7.56531287	    -66.41218310	      8.00315998	     -4.15854933	      0.00000000	    -63.22050464	      2.11326928	     -5.26892418
      7.35500000	     37.46181641	      3.57916877	      5.15371678	      1.88067528	      0.67678061	     -0.27419912	    -35.38192816	      4.86974792	     -4.60885544	    -12.25258186	     20.02513072	      7.36474209	      0.00000000	    -19.48761321	     -3.74681116	     -7.42740232	    -65.91794627	      8.68338129	     -3.72921734	      0.00000000	    -63.20736580	      1.94890675	     -5.11419212
      7.36000000	     37.39090804	      3.60863789	      4.94955942	      1.88525682	      0.67700464	     -0.27427653	    -35.95294870	      4.74396257	     -4.61893089	    -11.85049639	     20.11875686	      7.56256933	      0.00000000	    -18.75219429	     -3.33091866	     -7.28852704	    -65.33377080	      9.32620953	     -3.26476637	      0.00000000	    -63.20353680	      1.82492811	     -4.96073430
      7.36500000	     37.32246796	      3.62721172	      4.74863061	      1.88982716	      0.67718035	     -0.27434770	    -36.51265693	      4.62971026	     -4.64070977	    -11.46971889	     20.21432187	      7.75062321	      0.00000000	    -18.04173306	     -2.93815147	     -7.15714762	    -64.66417634	      9.92050240	     -2.82718428	      0.00000000	    -63.20673219	      1.70392752	     -4.79592069
      7.37000000	     37.25366973	      3.63737496	      4.55125648	      1.89436530	      0.67730092	     -0.27438107	    -37.05434132	      4.52880343	     -4.66904402	    -11.11256625	     20.30846611	      7.93121699	      0.00000000	    -17.34763821	     -2.57101779	     -7.03296751	    -63.91757663	     10.47046200	     -2.40645711	      0.00000000	    -63.21986978	      1.56723413	     -4.62066200
      7.37500000	     37.16177100	      3.61851906	      4.37061202	      1.89890947	      0.67735279	     -0.27445084	    -37.55768630	      4.46123259	     -4.71302812	    -10.77218981	     20.39445600	      8.01765300	      0.00000000	    -16.64826217	     -2.24414642	     -6.92110691	    -63.09700886	     10.97748697	     -2.13577822	      0.00000000	    -63.20869574	      1.47483097	     -4.41395921
      7.38000000	     37.08883398	      3.60755849	      4.16609614	      1.90342199	      0.67737895	     -0.27447117	    -38.05748880	      4.36941807	     -4.76408407	    -10.47752752	     20.51189200	      8.21213121	      0.00000000	    -16.00296896	     -1.92479323	     -6.82342293	    -62.17916007	     11.45234161	     -1.68245844	      0.00000000	    -63.23017580	      1.35444517	     -4.23445748
      7.38500000	     37.05217256	      3.58461988	      3.95887920	      1.90793020	      0.67738087	     -0.27447759	    -38.57899084	      4.28873404	     -4.79151088	    -10.21972127	     20.64477422	      8.45752337	      0.00000000	    -15.43462610	     -1.63245251	     -6.73751675	    -61.16063705	     11.87406932	     -1.26889724	      0.00000000	    -63.28221467	      1.23379913	     -4.04808143
      7.39000000	     37.00579319	      3.54460613	      3.75843281	      1.91243459	      0.67732837	     -0.27448804	    -39.07947844	      4.22711933	     -4.83714171	     -9.97426716	     20.76735030	      8.62807504	      0.00000000	    -14.88322977	     -1.37148760	     -6.67072533	    -60.05924302	     12.25351134	     -0.97194998	      0.00000000	    -63.32934830	      1.12580116	     -3.83449113
      7.39500000	     36.91127401	      3.46189690	      3.64708290	      1.91687657	      0.67716918	     -0.27456844	    -39.49945190	      4.26033245	     -4.85863432	     -9.76566667	     20.85590200	      8.65992841	      0.00000000	    -14.26552568	     -1.17947034	     -6.53563650	    -58.93010187	     12.59748109	     -0.86518892	      0.00000000	    -63.34098592	      1.11444312	     -3.62886692
      7.40000000	     36.87445493	      3.40684598	      3.39011901	      1.92139242	      0.67705737	     -0.27449536	    -39.97177790	      4.16996523	     -4.92335075	     -9.59601768	     21.03728071	      8.93947871	      0.00000000	    -13.81258451	     -0.96310941	     -6.56251276	    -57.63035747	     12.91548348	     -0.46091857	      0.00000000	    -63.40586298	      0.96330140	     -3.40695739
      7.40500000	     36.77369463	      3.30090770	      3.30469426	      1.92581644	      0.67681012	     -0.27457914	    -40.35420935	      4.23847624	     -4.98403408	     -9.44190500	     21.12456928	      8.94412910	      0.00000000	    -13.25121002	     -0.83164123	     -6.44368489	    -56.33278493	     13.20617214	     -0.39606712	      0.00000000	    -63.42047734	      0.98126461	     -3.19157386
